<svg width="291" height="233" viewBox="0 0 291 233" fill="none" xmlns="http://www.w3.org/2000/svg">
<path d="M73 160.5C73 150.979 74.8753 141.552 78.5187 132.755C82.1622 123.959 87.5025 115.967 94.2348 109.235C100.967 102.503 108.959 97.1622 117.755 93.5187C126.552 89.8753 135.979 88 145.5 88V160.5H73Z" fill="#6CBEF3"/>
<path d="M218 160.5C218 150.979 216.125 141.552 212.481 132.755C208.838 123.959 203.497 115.967 196.765 109.235C190.033 102.503 182.041 97.1622 173.245 93.5187C164.448 89.8753 155.021 88 145.5 88V160.5H218Z" fill="#404193"/>
<path d="M0 160.5C0 150.979 1.8882 141.552 5.55679 132.755C9.22539 123.959 14.6025 115.967 21.3812 109.235C28.1599 102.503 36.2073 97.1622 45.0641 93.5187C53.9209 89.8753 63.4135 88 73 88V160.5H0Z" fill="#E8B245"/>
<path d="M0 160.5C0 170.021 1.8882 179.448 5.55679 188.245C9.22539 197.041 14.6025 205.033 21.3812 211.765C28.1599 218.497 36.2073 223.838 45.0641 227.481C53.9209 231.125 63.4135 233 73 233V160.5H0Z" fill="#D03B37"/>
<path d="M73 160.5C73 170.021 74.8753 179.448 78.5187 188.245C82.1622 197.041 87.5025 205.033 94.2348 211.765C100.967 218.497 108.959 223.838 117.755 227.481C126.552 231.125 135.979 233 145.5 233V160.5H73Z" fill="#404193"/>
<path d="M291 160.5C291 150.979 289.112 141.552 285.443 132.755C281.775 123.959 276.397 115.967 269.619 109.235C262.84 102.503 254.793 97.1622 245.936 93.5187C237.079 89.8753 227.586 88 218 88V160.5H291Z" fill="#C989FA"/>
<path d="M291 160.5C291 170.021 289.112 179.448 285.443 188.245C281.775 197.041 276.397 205.033 269.619 211.765C262.84 218.497 254.793 223.838 245.936 227.481C237.079 231.125 227.586 233 218 233V160.5H291Z" fill="#735FEE"/>
<path d="M109 36C109 55.8823 92.8823 72 73 72C53.1177 72 37 55.8823 37 36C37 16.1177 53.1177 0 73 0C92.8823 0 109 16.1177 109 36Z" fill="#D03B37"/>
<path d="M73 88L47.8853 61.75L98.1147 61.75L73 88Z" fill="#D03B37"/>
<path d="M181.5 36C181.5 55.8823 165.382 72 145.5 72C125.618 72 109.5 55.8823 109.5 36C109.5 16.1177 125.618 0 145.5 0C165.382 0 181.5 16.1177 181.5 36Z" fill="#6CBEF3"/>
<path d="M145.5 88L120.385 61.75L170.615 61.75L145.5 88Z" fill="#6CBEF3"/>
<path d="M254 36C254 55.8823 237.882 72 218 72C198.118 72 182 55.8823 182 36C182 16.1177 198.118 0 218 0C237.882 0 254 16.1177 254 36Z" fill="#735FEE"/>
<path d="M218 88L192.885 61.75L243.115 61.75L218 88Z" fill="#735FEE"/>
</svg>
